HIERARCHY
ROOT newVegas:Hips
{
	OFFSET 0.000000 96.479958 0.000000
	CHANNELS 6 Xposition Yposition Zposition Xrotation Yrotation Zrotation
	JOINT newVegas:Pelvis
	{
		OFFSET 0.000000 0.000000 0.000000
		CHANNELS 3 Xrotation Yrotation Zrotation
		JOINT newVegas:LeftUpLeg
		{
			OFFSET 18.735201 -5.666702 -4.541200
			CHANNELS 3 Xrotation Yrotation Zrotation
			JOINT newVegas:LeftLeg
			{
				OFFSET -0.021200 -31.938179 0.493100
				CHANNELS 3 Xrotation Yrotation Zrotation
				JOINT newVegas:LeftFoot
				{
					OFFSET 0.021200 -31.938179 -4.336299
					CHANNELS 3 Xrotation Yrotation Zrotation
					JOINT newVegas:LeftToeBase
					{
						OFFSET 0.943001 -26.722000 15.023500
						CHANNELS 3 Xrotation Yrotation Zrotation
						End Site
						{
							OFFSET 0.000000 30.670183 0.000000
						}
					}
				}
				JOINT newVegas:Left_PantLeg
				{
					OFFSET 0.663870 -9.044666 -1.108900
					CHANNELS 3 Xrotation Yrotation Zrotation
					End Site
					{
						OFFSET 1.415995 20.635357 0.000000
					}
				}
			}
		}
		JOINT newVegas:RightUpLeg
		{
			OFFSET -18.735201 -5.666702 -4.541200
			CHANNELS 3 Xrotation Yrotation Zrotation
			JOINT newVegas:RightLeg
			{
				OFFSET 0.018946 -31.938133 0.493100
				CHANNELS 3 Xrotation Yrotation Zrotation
				JOINT newVegas:RightFoot
				{
					OFFSET -0.018946 -31.938126 -4.336299
					CHANNELS 3 Xrotation Yrotation Zrotation
					JOINT newVegas:RightToeBase
					{
						OFFSET -0.943001 -26.722004 15.023500
						CHANNELS 3 Xrotation Yrotation Zrotation
						End Site
						{
							OFFSET 0.000000 30.670187 0.000000
						}
					}
				}
				JOINT newVegas:Right_PantLeg
				{
					OFFSET -0.661674 -9.044716 -1.108900
					CHANNELS 3 Xrotation Yrotation Zrotation
					End Site
					{
						OFFSET -1.415958 20.635269 0.000000
					}
				}
			}
		}
	}
	JOINT newVegas:Spine
	{
		OFFSET 0.000000 10.199997 -0.299500
		CHANNELS 3 Xrotation Yrotation Zrotation
		JOINT newVegas:Spine1
		{
			OFFSET 0.000000 11.900002 -1.516600
			CHANNELS 3 Xrotation Yrotation Zrotation
			JOINT newVegas:Spine2
			{
				OFFSET 0.000000 13.600006 -2.842500
				CHANNELS 3 Xrotation Yrotation Zrotation
				JOINT newVegas:Neck
				{
					OFFSET 0.000000 9.624100 -2.890100
					CHANNELS 3 Xrotation Yrotation Zrotation
					JOINT newVegas:Head
					{
						OFFSET 0.000000 14.068802 -1.351900
						CHANNELS 3 Xrotation Yrotation Zrotation
						JOINT newVegas:Hair_Back
						{
							OFFSET 0.000000 3.231903 -17.524799
							CHANNELS 3 Xrotation Yrotation Zrotation
							End Site
							{
								OFFSET 0.000000 19.849884 0.000000
							}
						}
						JOINT newVegas:Hair_Front
						{
							OFFSET 0.000000 31.260406 4.573800
							CHANNELS 3 Xrotation Yrotation Zrotation
							JOINT newVegas:Hair_Front1
							{
								OFFSET 0.000000 2.284103 11.993300
								CHANNELS 3 Xrotation Yrotation Zrotation
								JOINT newVegas:Hair_Front2
								{
									OFFSET 0.000000 2.284103 11.993300
									CHANNELS 3 Xrotation Yrotation Zrotation
									End Site
									{
										OFFSET 0.000000 12.208862 0.000000
									}
								}
							}
						}
						JOINT newVegas:Jowel
						{
							OFFSET 0.000000 -7.458206 6.864100
							CHANNELS 3 Xrotation Yrotation Zrotation
							End Site
							{
								OFFSET 0.000000 19.849884 0.000000
							}
						}
					}
				}
				JOINT newVegas:LeftShoulder
				{
					OFFSET 15.263000 10.923401 -0.547700
					CHANNELS 3 Xrotation Yrotation Zrotation
					JOINT newVegas:LeftArm
					{
						OFFSET 25.438599 -2.830597 -13.032500
						CHANNELS 3 Xrotation Yrotation Zrotation
						JOINT newVegas:LeftForeArm
						{
							OFFSET 29.960503 0.000000 0.000000
							CHANNELS 3 Xrotation Yrotation Zrotation
							JOINT newVegas:LeftHand
							{
								OFFSET 27.849251 0.000000 0.000000
								CHANNELS 3 Xrotation Yrotation Zrotation
								JOINT newVegas:LeftHandThumb1
								{
									OFFSET 4.487587 -3.305161 6.305391
									CHANNELS 3 Xrotation Yrotation Zrotation
									JOINT newVegas:LeftHandThumb2
									{
										OFFSET 5.480453 -3.164139 3.164143
										CHANNELS 3 Xrotation Yrotation Zrotation
										JOINT newVegas:LeftHandThumb3
										{
											OFFSET 5.159721 -2.978973 2.978967
											CHANNELS 3 Xrotation Yrotation Zrotation
											End Site
											{
												OFFSET 2.494507 5.926697 1.738678
											}
										}
									}
								}
								JOINT newVegas:LeftHandIndex1
								{
									OFFSET 18.578728 -0.527832 5.208049
									CHANNELS 3 Xrotation Yrotation Zrotation
									JOINT newVegas:LeftHandIndex2
									{
										OFFSET 3.192009 0.000000 0.000000
										CHANNELS 3 Xrotation Yrotation Zrotation
										JOINT newVegas:LeftHandIndex3
										{
											OFFSET 3.835129 0.000000 0.000000
											CHANNELS 3 Xrotation Yrotation Zrotation
											End Site
											{
												OFFSET -0.034599 3.816971 0.371180
											}
										}
									}
								}
								JOINT newVegas:LeftHandMiddle1
								{
									OFFSET 18.476105 0.000000 0.000000
									CHANNELS 3 Xrotation Yrotation Zrotation
									JOINT newVegas:LeftHandMiddle2
									{
										OFFSET 3.324875 0.000000 0.000000
										CHANNELS 3 Xrotation Yrotation Zrotation
										JOINT newVegas:LeftHandMiddle3
										{
											OFFSET 4.596550 0.000000 0.000000
											CHANNELS 3 Xrotation Yrotation Zrotation
											End Site
											{
												OFFSET 0.057701 4.578827 0.399218
											}
										}
									}
								}
								JOINT newVegas:LeftHandRing1
								{
									OFFSET 17.732719 0.121887 -4.201567
									CHANNELS 3 Xrotation Yrotation Zrotation
									JOINT newVegas:LeftHandRing2
									{
										OFFSET 2.733170 0.000000 0.000000
										CHANNELS 3 Xrotation Yrotation Zrotation
										JOINT newVegas:LeftHandRing3
										{
											OFFSET 3.178268 0.000000 0.000000
											CHANNELS 3 Xrotation Yrotation Zrotation
											End Site
											{
												OFFSET 0.119102 3.170624 0.185394
											}
										}
									}
								}
								JOINT newVegas:LeftHandPinky1
								{
									OFFSET 15.989624 -0.606689 -7.535461
									CHANNELS 3 Xrotation Yrotation Zrotation
									JOINT newVegas:LeftHandPinky2
									{
										OFFSET 2.538986 0.000000 0.000000
										CHANNELS 3 Xrotation Yrotation Zrotation
										JOINT newVegas:LeftHandPinky3
										{
											OFFSET 2.593102 0.000000 0.000000
											CHANNELS 3 Xrotation Yrotation Zrotation
											End Site
											{
												OFFSET -0.150902 2.584198 0.152708
											}
										}
									}
								}
							}
							JOINT newVegas:Left_Sleeve
							{
								OFFSET 0.267448 -0.649796 0.577675
								CHANNELS 3 Xrotation Yrotation Zrotation
								End Site
								{
									OFFSET 0.000000 15.991241 0.000000
								}
							}
							JOINT newVegas:Left_CapeC
							{
								OFFSET 15.715958 -8.608795 -6.935905
								CHANNELS 3 Xrotation Yrotation Zrotation
								JOINT newVegas:Left_CapeC1
								{
									OFFSET 0.000000 -8.688499 0.000000
									CHANNELS 3 Xrotation Yrotation Zrotation
									End Site
									{
										OFFSET 0.000000 8.688499 0.000000
									}
								}
							}
						}
						JOINT newVegas:Left_CapeB
						{
							OFFSET 26.118385 -8.608795 -7.079235
							CHANNELS 3 Xrotation Yrotation Zrotation
							JOINT newVegas:Left_CapeB1
							{
								OFFSET 0.000000 -8.688499 0.000000
								CHANNELS 3 Xrotation Yrotation Zrotation
								End Site
								{
									OFFSET 0.000000 8.688499 0.000000
								}
							}
						}
						JOINT newVegas:Left_CapeA
						{
							OFFSET 5.115639 -8.608795 -10.395809
							CHANNELS 3 Xrotation Yrotation Zrotation
							JOINT newVegas:Left_CapeA1
							{
								OFFSET 0.000000 -8.688499 0.000000
								CHANNELS 3 Xrotation Yrotation Zrotation
								End Site
								{
									OFFSET 0.000000 8.688499 0.000000
								}
							}
						}
					}
				}
				JOINT newVegas:RightShoulder
				{
					OFFSET -15.263000 10.923401 -0.547700
					CHANNELS 3 Xrotation Yrotation Zrotation
					JOINT newVegas:RightArm
					{
						OFFSET -25.438599 -2.830597 -13.032500
						CHANNELS 3 Xrotation Yrotation Zrotation
						JOINT newVegas:RightForeArm
						{
							OFFSET -29.960503 0.000000 0.000000
							CHANNELS 3 Xrotation Yrotation Zrotation
							JOINT newVegas:RightHand
							{
								OFFSET -27.849251 0.000000 0.000000
								CHANNELS 3 Xrotation Yrotation Zrotation
								JOINT newVegas:RightHandThumb1
								{
									OFFSET -4.487587 -3.305161 6.305391
									CHANNELS 3 Xrotation Yrotation Zrotation
									JOINT newVegas:RightHandThumb2
									{
										OFFSET -5.480453 -3.164139 3.164143
										CHANNELS 3 Xrotation Yrotation Zrotation
										JOINT newVegas:RightHandThumb3
										{
											OFFSET -5.159721 -2.978973 2.978967
											CHANNELS 3 Xrotation Yrotation Zrotation
											End Site
											{
												OFFSET -2.494507 5.926697 1.738678
											}
										}
									}
								}
								JOINT newVegas:RightHandIndex1
								{
									OFFSET -18.578728 -0.527832 5.208049
									CHANNELS 3 Xrotation Yrotation Zrotation
									JOINT newVegas:RightHandIndex2
									{
										OFFSET -3.192009 0.000000 0.000000
										CHANNELS 3 Xrotation Yrotation Zrotation
										JOINT newVegas:RightHandIndex3
										{
											OFFSET -3.835129 0.000000 0.000000
											CHANNELS 3 Xrotation Yrotation Zrotation
											End Site
											{
												OFFSET 0.034599 3.816971 0.371180
											}
										}
									}
								}
								JOINT newVegas:RightHandMiddle1
								{
									OFFSET -18.476105 0.000000 0.000000
									CHANNELS 3 Xrotation Yrotation Zrotation
									JOINT newVegas:RightHandMiddle2
									{
										OFFSET -3.324875 0.000000 0.000000
										CHANNELS 3 Xrotation Yrotation Zrotation
										JOINT newVegas:RightHandMiddle3
										{
											OFFSET -4.596550 0.000000 0.000000
											CHANNELS 3 Xrotation Yrotation Zrotation
											End Site
											{
												OFFSET -0.057701 4.578827 0.399218
											}
										}
									}
								}
								JOINT newVegas:RightHandRing1
								{
									OFFSET -17.732719 0.121887 -4.201567
									CHANNELS 3 Xrotation Yrotation Zrotation
									JOINT newVegas:RightHandRing2
									{
										OFFSET -2.733170 0.000000 0.000000
										CHANNELS 3 Xrotation Yrotation Zrotation
										JOINT newVegas:RightHandRing3
										{
											OFFSET -3.178268 0.000000 0.000000
											CHANNELS 3 Xrotation Yrotation Zrotation
											End Site
											{
												OFFSET -0.119102 3.170624 0.185394
											}
										}
									}
								}
								JOINT newVegas:RightHandPinky1
								{
									OFFSET -15.989624 -0.606689 -7.535461
									CHANNELS 3 Xrotation Yrotation Zrotation
									JOINT newVegas:RightHandPinky2
									{
										OFFSET -2.538986 0.000000 0.000000
										CHANNELS 3 Xrotation Yrotation Zrotation
										JOINT newVegas:RightHandPinky3
										{
											OFFSET -2.593102 0.000000 0.000000
											CHANNELS 3 Xrotation Yrotation Zrotation
											End Site
											{
												OFFSET 0.150902 2.584198 0.152708
											}
										}
									}
								}
							}
							JOINT newVegas:Right_CapeC
							{
								OFFSET -15.715958 -8.608795 -6.935905
								CHANNELS 3 Xrotation Yrotation Zrotation
								JOINT newVegas:Right_CapeC1
								{
									OFFSET 0.000000 -8.688499 0.000000
									CHANNELS 3 Xrotation Yrotation Zrotation
									End Site
									{
										OFFSET 0.000000 8.688499 0.000000
									}
								}
							}
							JOINT newVegas:Right_Sleeve
							{
								OFFSET -0.267448 -0.649994 0.577675
								CHANNELS 3 Xrotation Yrotation Zrotation
								End Site
								{
									OFFSET 0.000000 15.991302 0.000000
								}
							}
						}
						JOINT newVegas:Right_CapeA
						{
							OFFSET -5.115540 -8.608795 -10.395824
							CHANNELS 3 Xrotation Yrotation Zrotation
							JOINT newVegas:Right_CapeA1
							{
								OFFSET 0.000000 -8.688499 0.000000
								CHANNELS 3 Xrotation Yrotation Zrotation
								End Site
								{
									OFFSET 0.000000 8.688499 0.000000
								}
							}
						}
						JOINT newVegas:Right_CapeB
						{
							OFFSET -26.118187 -8.608795 -7.079266
							CHANNELS 3 Xrotation Yrotation Zrotation
							JOINT newVegas:Right_CapeB1
							{
								OFFSET 0.000000 -8.688499 0.000000
								CHANNELS 3 Xrotation Yrotation Zrotation
								End Site
								{
									OFFSET 0.000000 8.688499 0.000000
								}
							}
						}
					}
				}
				JOINT newVegas:Left_Collar
				{
					OFFSET 18.625099 8.655502 8.828100
					CHANNELS 3 Xrotation Yrotation Zrotation
					JOINT newVegas:Left_Collar1
					{
						OFFSET 14.783401 10.540405 -1.259500
						CHANNELS 3 Xrotation Yrotation Zrotation
						End Site
						{
							OFFSET 0.000000 18.199875 0.000000
						}
					}
				}
				JOINT newVegas:Collar_Back
				{
					OFFSET 0.000000 15.630707 -20.132601
					CHANNELS 3 Xrotation Yrotation Zrotation
					End Site
					{
						OFFSET 0.000000 22.523010 0.000000
					}
				}
				JOINT newVegas:Left_Peck
				{
					OFFSET 17.239599 -5.132599 25.482599
					CHANNELS 3 Xrotation Yrotation Zrotation
					End Site
					{
						OFFSET 0.000000 22.523010 0.000000
					}
				}
				JOINT newVegas:Right_Peck
				{
					OFFSET -17.239599 -5.132202 25.482599
					CHANNELS 3 Xrotation Yrotation Zrotation
					End Site
					{
						OFFSET 0.000000 22.523010 0.000000
					}
				}
				JOINT newVegas:Right_Collar
				{
					OFFSET -18.625099 8.655792 8.828100
					CHANNELS 3 Xrotation Yrotation Zrotation
					JOINT newVegas:Right_Collar1
					{
						OFFSET -14.783401 10.539993 -1.259500
						CHANNELS 3 Xrotation Yrotation Zrotation
						End Site
						{
							OFFSET 0.000000 18.199631 0.000000
						}
					}
				}
			}
		}
		JOINT newVegas:Belly
		{
			OFFSET 0.000000 -6.540398 9.014299
			CHANNELS 3 Xrotation Yrotation Zrotation
			End Site
			{
				OFFSET 0.000000 11.566666 0.000000
			}
		}
	}
	JOINT newVegas:ElvisFacialAnim_Joint
	{
		OFFSET 1.000000 -95.330101 -8.825800
		CHANNELS 3 Xrotation Yrotation Zrotation
		End Site
		{
			OFFSET 0.000000 35.315800 0.000000
		}
	}
}
MOTION
Frames: 4
Frame Time: 0.033333
0.700589 89.020569 4.314632 -1.500788 6.264450 2.693934 -0.000000 0.000000 0.000000 -26.897848 -8.346881 12.986415 27.874453 -0.962511 -1.107936 0.126442 -2.765188 -16.824119 -0.000000 -0.000000 -0.000000 0.000000 0.000000 -0.000001 -18.968412 -11.346720 -22.694582 44.800987 2.119628 1.788280 -22.724596 -9.831671 12.617437 -0.000000 0.000000 0.000000 -0.000001 0.000001 0.000000 5.550164 -0.029704 -0.187662 11.100323 0.009740 -0.734989 11.100321 0.009741 -0.734989 -2.094288 -0.354148 -0.652399 -2.094293 -0.354150 -0.652400 0.000001 0.000000 -0.000000 -2.094289 -0.354148 -0.652400 -2.094293 -0.354149 -0.652399 0.000001 -0.000001 0.000000 0.000001 0.000000 -0.000000 9.458451 -6.444344 -14.996461 -9.688683 10.601555 -35.774519 0.001824 -55.255940 0.168447 23.869196 -12.509992 16.445974 7.350855 -14.484219 -10.934843 -1.067057 0.182837 1.946097 0.000001 -0.000005 0.000000 5.776126 -9.584529 -10.641319 0.033767 0.666535 -10.636471 0.000001 0.000001 -0.000001 1.641879 7.127203 -4.239653 -0.187954 -0.789334 -15.969013 0.000007 -0.000000 0.000002 1.677307 11.039965 -8.046059 -0.183066 -2.876890 -23.912142 -0.000001 -0.000004 -0.000001 0.734583 28.047557 -16.218754 -0.849523 -6.142187 -29.148256 0.000004 -0.000002 0.000001 0.000000 -0.000001 -0.000000 0.000000 -0.000001 -0.000000 -0.000001 -0.000000 -0.000001 -0.000000 -0.000003 -0.000002 -0.000001 -0.000003 -0.000005 -0.000000 -0.000003 -0.000002 -0.000001 -0.000003 -0.000001 -3.413134 0.044909 -0.357068 -8.521088 -11.378038 60.672618 -0.093814 56.128872 -0.117879 33.242295 -12.830429 -17.731921 -4.978385 12.391669 9.407268 -1.210154 -0.220444 -2.121002 0.000002 0.000001 -0.000000 10.258619 13.576568 6.067476 0.012525 -0.647899 4.076571 0.000002 0.000000 0.000001 -1.738475 -1.670976 3.393794 -0.252712 0.798104 21.448257 -0.000002 0.000001 -0.000001 -0.824263 -13.700965 18.348840 -0.242210 2.213620 16.221196 0.000002 0.000004 0.000001 -4.380747 -23.900594 30.060305 -0.233912 5.125295 12.870298 -0.000002 0.000003 0.000001 0.000000 0.000002 0.000001 0.000000 0.000001 0.000002 0.000000 0.000001 0.000002 -0.000001 -0.000001 -0.000003 -0.000001 -0.000001 -0.000001 -0.000001 -0.000001 -0.000003 -0.000000 -0.000001 0.000001 -0.000000 -0.000000 0.000000 -0.000000 -0.000000 0.000000 -0.000000 -0.000000 0.000000 -0.000000 -0.000000 0.000000 -0.000000 -0.000000 0.000000 -0.000000 -0.000000 0.000000 -0.000000 -0.000000 0.000000 0.000000 -0.000000 0.000000 -0.000000 0.000000 0.000000 
0.638591 88.923538 4.287749 -1.260817 5.411524 2.760797 0.000000 0.000000 -0.000000 -26.866961 -8.511204 13.062162 28.439545 -0.225249 -1.091505 -0.380242 -2.404504 -17.068897 0.000000 0.000000 -0.000000 0.000000 0.000000 -0.000000 -19.998575 -10.849584 -22.877982 45.432291 2.938875 1.847366 -22.738178 -9.849508 12.203914 -0.000000 0.000001 -0.000000 -0.000002 0.000000 -0.000001 5.349055 -0.030679 -0.215621 10.698066 0.001320 -0.805400 10.698069 0.001319 -0.805400 -1.872261 -0.340301 -0.594288 -1.872246 -0.340300 -0.594288 0.000001 0.000000 0.000000 -1.872254 -0.340306 -0.594288 -1.872256 -0.340302 -0.594288 -0.000001 -0.000000 -0.000000 0.000001 0.000000 0.000000 9.108651 -5.609299 -14.589771 -9.107811 9.697730 -37.113004 -0.155010 -54.164411 0.177982 24.733650 -12.607601 16.828343 7.053172 -11.931137 -11.160947 -1.067059 0.182851 1.946087 -0.000000 0.000001 -0.000003 5.776136 -9.584530 -10.641306 0.033763 0.666538 -10.636475 -0.000001 0.000002 -0.000000 1.641882 7.127191 -4.239641 -0.187954 -0.789354 -15.969040 0.000001 -0.000003 0.000001 1.677305 11.039946 -8.046054 -0.183069 -2.876880 -23.912173 0.000001 -0.000001 -0.000001 0.734592 28.047562 -16.218740 -0.849522 -6.142219 -29.148290 0.000004 -0.000007 0.000001 -0.000001 -0.000002 -0.000005 -0.000001 -0.000002 -0.000005 -0.000002 -0.000001 -0.000005 -0.000001 0.000001 -0.000000 -0.000001 0.000000 -0.000002 -0.000001 0.000001 -0.000000 -0.000001 -0.000000 0.000001 -3.187053 -0.551782 0.118998 -8.754168 -10.635406 60.423432 -0.095400 55.460873 -0.110958 33.561422 -12.357185 -18.046721 -4.978379 12.391672 9.407255 -1.210150 -0.220435 -2.121010 -0.000003 -0.000001 0.000001 10.258621 13.576539 6.067469 0.009091 -0.602095 4.534184 0.000000 0.000000 -0.000000 -1.738474 -1.670986 3.393794 -0.252705 0.798112 21.448261 -0.000002 -0.000000 -0.000002 -0.824260 -13.700963 18.348849 -0.242206 2.213623 16.221173 -0.000002 -0.000001 0.000001 -4.380748 -23.900599 30.060308 -0.233924 5.125295 12.870318 -0.000001 0.000005 0.000003 -0.000001 0.000002 0.000002 -0.000001 0.000001 0.000001 -0.000001 0.000001 0.000002 -0.000000 0.000000 -0.000002 -0.000000 -0.000001 -0.000002 -0.000000 0.000000 -0.000002 0.000000 -0.000001 0.000000 -0.000002 -0.000000 0.000000 -0.000002 -0.000000 0.000000 -0.000002 -0.000000 0.000000 -0.000002 -0.000000 0.000000 -0.000002 -0.000000 0.000000 -0.000002 -0.000000 0.000000 -0.000002 -0.000000 0.000000 0.000000 0.000000 -0.000000 0.000000 0.000000 -0.000000 
0.511521 88.783340 4.340999 -0.909746 4.406171 2.725195 -0.000000 0.000000 0.000000 -27.019482 -8.268021 13.498666 29.328293 0.554154 -1.085799 -1.143656 -2.404891 -17.356568 0.000000 0.000000 0.000000 -0.000000 -0.000000 -0.000000 -21.169987 -10.594220 -23.033495 46.097975 3.790584 1.909378 -22.928892 -9.525746 11.727618 -0.000000 -0.000002 -0.000000 0.000001 0.000001 0.000001 5.104829 -0.021874 -0.220125 10.209721 0.015866 -0.819555 10.209722 0.015865 -0.819555 -1.515987 -0.330695 -0.552356 -1.515982 -0.330693 -0.552356 -0.000000 -0.000000 0.000000 -1.515979 -0.330694 -0.552356 -1.515987 -0.330699 -0.552356 0.000000 0.000000 -0.000000 -0.000000 -0.000000 -0.000000 8.672958 -4.800404 -14.135446 -7.854384 8.677399 -38.501920 -0.194848 -53.840295 0.317836 18.943885 -11.450351 16.109114 6.449554 -8.349959 -13.595614 -1.067057 0.182825 1.946089 0.000005 -0.000003 -0.000001 5.776123 -9.584529 -10.641324 0.033766 0.666524 -10.636465 -0.000003 0.000000 -0.000001 1.641877 7.127194 -4.239655 -0.187950 -0.789329 -15.969018 0.000001 -0.000002 -0.000002 1.677299 11.039972 -8.046066 -0.183067 -2.876886 -23.912151 0.000002 -0.000001 0.000001 0.734585 28.047569 -16.218738 -0.849529 -6.142198 -29.148280 0.000001 -0.000005 0.000001 0.000002 0.000000 0.000003 0.000002 0.000000 0.000003 0.000001 0.000000 0.000003 -0.000001 -0.000001 0.000004 -0.000001 -0.000002 0.000001 -0.000001 -0.000001 0.000004 -0.000001 -0.000002 0.000005 -2.970720 -1.209058 0.498345 -7.849258 -9.475719 59.917903 -0.093542 55.628469 -0.106450 30.217710 -11.808139 -18.178007 -4.978381 12.391675 9.407254 -1.210144 -0.220427 -2.121003 0.000001 -0.000000 -0.000001 10.258621 13.576551 6.067464 0.004948 -0.552486 5.030423 0.000001 -0.000001 0.000001 -1.738476 -1.670995 3.393784 -0.252704 0.798118 21.448262 0.000004 -0.000000 -0.000000 -0.824262 -13.700962 18.348832 -0.242216 2.213625 16.221218 -0.000002 0.000001 -0.000002 -4.380748 -23.900591 30.060305 -0.233920 5.125298 12.870299 0.000002 0.000002 0.000000 0.000000 0.000004 -0.000001 0.000000 0.000002 0.000002 0.000000 0.000004 0.000001 0.000000 0.000000 0.000001 0.000000 0.000000 0.000003 0.000000 0.000000 0.000001 0.000000 0.000000 0.000005 0.000000 0.000000 -0.000000 0.000000 0.000000 -0.000000 0.000000 0.000000 -0.000000 0.000000 0.000000 -0.000000 0.000000 0.000000 -0.000000 0.000000 0.000000 -0.000000 0.000000 0.000000 -0.000000 0.000000 0.000000 -0.000000 -0.000000 0.000000 0.000000 
0.255457 88.783890 4.880693 -1.042728 3.432944 2.276687 0.000000 -0.000000 -0.000000 -26.543628 -7.383968 14.832799 30.419702 1.314123 -1.089272 -2.440533 -3.497444 -17.719198 0.000000 0.000000 -0.000000 -0.000000 0.000000 0.000001 -20.800766 -11.626748 -22.796530 45.656304 4.526450 1.930268 -23.481248 -8.595121 11.234110 -0.000000 -0.000000 0.000000 0.000001 0.000001 -0.000000 4.791206 -0.025737 -0.161300 9.582465 0.025036 -0.645952 9.582469 0.025036 -0.645952 -1.090615 -0.331373 -0.549711 -1.090610 -0.331373 -0.549710 0.000001 -0.000000 0.000000 -1.090538 -0.331372 -0.549710 -1.090606 -0.331373 -0.549711 -0.000000 -0.000000 0.000000 0.000001 -0.000000 0.000000 8.185749 -3.568328 -13.725795 -5.045897 6.679904 -39.866677 0.130752 -57.242904 0.849756 5.672210 -8.640251 14.890661 5.529435 -5.299492 -14.260490 -1.067060 0.182835 1.946083 0.000001 -0.000002 0.000002 5.776124 -9.584540 -10.641332 0.033761 0.666532 -10.636461 -0.000000 0.000001 0.000000 1.641877 7.127188 -4.239655 -0.187949 -0.789345 -15.969020 0.000003 -0.000003 0.000000 1.677301 11.039962 -8.046065 -0.183064 -2.876878 -23.912158 -0.000000 0.000003 -0.000000 0.734587 28.047561 -16.218773 -0.849529 -6.142197 -29.148273 -0.000000 0.000000 -0.000001 0.000002 -0.000002 -0.000001 0.000002 -0.000002 -0.000001 0.000001 -0.000001 -0.000002 -0.000001 0.000001 0.000001 -0.000001 0.000000 -0.000000 -0.000001 0.000001 0.000001 -0.000001 -0.000000 0.000002 -2.718580 -2.478961 1.061343 -4.611063 -6.991806 58.891189 -0.075319 59.660391 -0.114377 21.315366 -10.599832 -18.530218 -4.978389 12.391667 9.407255 -1.210141 -0.220431 -2.120995 -0.000000 -0.000003 -0.000001 10.258619 13.576553 6.067476 0.000067 -0.499779 5.558053 -0.000001 -0.000001 0.000001 -1.738472 -1.670993 3.393771 -0.252713 0.798112 21.448273 0.000001 -0.000003 0.000000 -0.824267 -13.700962 18.348844 -0.242209 2.213619 16.221180 0.000002 -0.000001 0.000002 -4.380744 -23.900599 30.060305 -0.233920 5.125310 12.870322 -0.000000 0.000002 -0.000001 -0.000000 0.000001 0.000000 -0.000001 0.000001 0.000000 -0.000000 0.000001 0.000000 -0.000000 0.000000 0.000005 -0.000000 0.000000 0.000005 -0.000000 0.000000 0.000005 0.000000 0.000000 0.000007 0.000000 0.000000 0.000000 0.000000 0.000000 0.000000 0.000000 0.000000 0.000000 0.000000 0.000000 0.000000 0.000000 0.000000 0.000000 0.000000 0.000000 0.000000 0.000000 0.000000 0.000000 -0.000000 -0.000000 -0.000000 0.000000 -0.000000 -0.000000 
